Coordinates
version=1
nRows=11
nColumns=63
inDegrees=yes

Units are S.I. units (second, meters, Newtons, ...)
If the header above contains a line with 'inDegrees', this indicates whether rotational values are in degrees (yes) or radians (no).

endheader
time	pelvis_tilt	pelvis_list	pelvis_rotation	pelvis_tx	pelvis_ty	pelvis_tz	hip_flexion_r	hip_adduction_r	hip_rotation_r	knee_angle_r	knee_angle_r_beta	ankle_angle_r	subtalar_angle_r	mtp_angle_r	hip_flexion_l	hip_adduction_l	hip_rotation_l	knee_angle_l	knee_angle_l_beta	ankle_angle_l	subtalar_angle_l	mtp_angle_l	L5_S1_Flex_Ext	L5_S1_Lat_Bending	L5_S1_axial_rotation	L4_L5_Flex_Ext	L4_L5_Lat_Bending	L4_L5_axial_rotation	L3_L4_Flex_Ext	L3_L4_Lat_Bending	L3_L4_axial_rotation	L2_L3_Flex_Ext	L2_L3_Lat_Bending	L2_L3_axial_rotation	L1_L2_Flex_Ext	L1_L2_Lat_Bending	L1_L2_axial_rotation	L1_T12_Flex_Ext	L1_T12_Lat_Bending	L1_T12_axial_rotation	Abs_r3	Abs_r2	Abs_r1	Abs_t1	Abs_t2	neck_flexion	neck_bending	neck_rotation	arm_flex_r	arm_add_r	arm_rot_r	elbow_flex_r	pro_sup_r	wrist_flex_r	wrist_dev_r	arm_flex_l	arm_add_l	arm_rot_l	elbow_flex_l	pro_sup_l	wrist_flex_l	wrist_dev_l
      4.01694915	      1.49867481	     -8.86219043	     51.67527392	      0.25903082	      0.67325196	      0.62827727	      6.86251851	     11.54888387	     31.80513671	      5.27684301	      0.09209828	     15.52905233	    -16.29167473	      0.00000000	      3.09656302	     -7.70516841	    -21.68007221	      7.67746791	      0.13399709	     32.52881123	    -10.74452323	      0.00000000	     -0.17564496	      0.16882134	     -3.73474455	     -0.32619025	      0.22453238	     -3.96816609	     -0.28856710	      0.41047221	     -3.96816609	     -0.20074462	      0.41047221	     -3.26790148	     -0.16310391	      0.34426048	     -3.03447995	     -0.10036353	      0.26150426	     -2.80105842	     -1.25461438	      1.90974076	    -20.77152878	      0.00000000	      0.00000000	     16.18115904	     -9.28706980	    -15.99705436	    -43.58533529	    -47.74582310	   -106.50033880	     43.77629666	      8.95222853	      8.03898581	     12.32983047	   -196.42602210	   -137.76849705	   -229.73513665	     35.43462177	     72.53081713	    -14.88872523	      9.05863417
      4.03389831	      1.26693537	     -8.89302018	     51.96609572	      0.25994273	      0.67339399	      0.62873702	      6.98408061	     11.37310679	     32.14676454	      5.02995412	      0.08778926	     15.80323949	    -16.44333547	      0.00000000	      3.43658860	     -7.64507945	    -21.59163798	      7.92831375	      0.13837518	     32.63215420	    -10.34072255	      0.00000000	     -0.14240539	      0.11941117	     -3.56189750	     -0.26446104	      0.15881685	     -3.78451609	     -0.23395781	      0.29033632	     -3.78451609	     -0.16275511	      0.29033632	     -3.11666031	     -0.13223764	      0.24350326	     -2.89404172	     -0.08137044	      0.18496790	     -2.67142312	     -1.01718743	      1.35080302	    -19.81020531	      0.00000000	      0.00000000	     16.75703325	     -8.83502544	    -18.63414167	    -44.51200998	    -50.55988520	   -108.45457759	     40.16243340	      9.77993086	      2.15828828	      8.37378749	   -195.09952390	   -137.55019646	   -227.98064297	     35.35132559	     73.12438725	    -14.66181024	      9.24059015
      4.05084746	      1.05268555	     -9.09146520	     52.14104761	      0.26066455	      0.67360866	      0.62853820	      7.38730249	     11.37445324	     32.03616388	      5.20123896	      0.09077874	     16.20437034	    -16.18064596	      0.00000000	      3.80908067	     -7.64995354	    -21.73187037	      8.09955732	      0.14136394	     32.71550882	     -9.87117605	      0.00000000	     -0.09478779	      0.07641901	     -3.32458675	     -0.17603041	      0.10163729	     -3.53237342	     -0.15572687	      0.18580518	     -3.53237342	     -0.10833297	      0.18580518	     -2.90901341	     -0.08801995	      0.15583365	     -2.70122673	     -0.05416175	      0.11837305	     -2.49344006	     -0.67705973	      0.86446714	    -18.49035412	      0.00000000	      0.00000000	     17.61683246	     -7.79250552	    -21.76017197	    -45.02408401	    -52.95786535	   -111.28728017	     36.87461293	     25.52968307	     -4.96142566	      4.02745996	   -193.70102096	   -137.36630368	   -225.71281874	     35.32782852	     73.28218977	    -14.75630816	      8.50142577
      4.06779661	      0.92783053	     -9.54216023	     52.34640850	      0.26075411	      0.67372170	      0.62761604	      8.05445429	     11.58739748	     31.36254576	      5.63051944	      0.09827110	     16.72139736	    -15.41667544	      0.00000000	      4.33486059	     -7.80940283	    -21.60129657	      8.27500739	      0.14442612	     32.79489722	     -9.77762305	      0.00000000	     -0.03846809	      0.05570433	     -3.04512360	     -0.07143910	      0.07408675	     -3.23544383	     -0.06319923	      0.13543950	     -3.23544383	     -0.04396518	      0.13543950	     -2.66448315	     -0.03572147	      0.11359226	     -2.47416293	     -0.02198067	      0.08628600	     -2.28384270	     -0.27477374	      0.63013847	    -16.93606394	      0.00000000	      0.00000000	     19.01277507	     -6.23091036	    -25.17703448	    -45.00857671	    -54.89830171	   -115.02579530	     34.29514831	     42.15361363	    -11.09582431	      2.05493277	   -192.13250687	   -137.64380600	   -223.97228026	     35.74170094	     74.19668393	    -14.80909544	      7.28762879
      4.08474576	      0.89069846	    -10.17595981	     52.50268834	      0.26040652	      0.67391136	      0.62641766	      8.93797395	     11.98205900	     30.07158975	      6.28489055	      0.10969203	     17.26726164	    -13.98796082	      0.00000000	      4.93018435	     -8.12535257	    -21.74926589	      8.39794945	      0.14657187	     32.88047020	     -9.53841288	      0.00000000	      0.02530731	      0.05169984	     -2.75398691	      0.04699820	      0.06876078	     -2.92611109	      0.04157738	      0.12570299	     -2.92611109	      0.02892372	      0.12570299	     -2.40973855	      0.02350037	      0.10542631	     -2.23761436	      0.01446060	      0.08008305	     -2.06549018	      0.18076757	      0.58483890	    -15.31684900	      0.00000000	      0.00000000	     21.06519801	     -3.79978484	    -27.79034078	    -43.40956976	    -56.48920973	   -120.25689034	     33.07694928	     58.00161278	    -14.93832800	      1.97070052	   -190.87999625	   -138.46290300	   -222.98446193	     36.72461417	     76.09446156	    -15.19657356	      5.76406249
      4.10169492	      0.92334737	    -10.75505182	     52.71879750	      0.25987389	      0.67409709	      0.62537703	      9.77293046	     12.35666634	     28.46410729	      6.94624357	      0.12123482	     17.91981902	    -12.08218225	      0.00000000	      5.48518773	     -8.49390095	    -22.16171574	      8.56329487	      0.14945769	     33.07434421	     -8.97248692	      0.00000000	      0.08336319	      0.05572445	     -2.54920123	      0.15481378	      0.07411352	     -2.70852631	      0.13695739	      0.13548843	     -2.70852631	      0.09527579	      0.13548843	     -2.23055108	      0.07741106	      0.11363330	     -2.07122600	      0.04763373	      0.08631717	     -1.91190092	      0.59545495	      0.63036612	    -14.17789249	      0.00000000	      0.00000000	     23.73128039	     -0.71567596	    -28.02654627	    -40.74425366	    -57.71400818	   -124.48041770	     33.76531974	     70.96299823	    -16.83525893	      2.18144761	   -190.45986225	   -139.73473761	   -222.85962174	     37.93039569	     78.65070482	    -16.07866259	      3.94705195
      4.11864407	      1.06663980	    -11.12370063	     53.20200197	      0.25942882	      0.67409960	      0.62463214	     10.21238958	     12.63611209	     27.62404352	      7.22375795	      0.12607836	     18.19933228	    -11.36616415	      0.00000000	      5.92536543	     -8.85973911	    -22.26650725	      8.82742777	      0.15406768	     33.36292363	     -8.52481169	      0.00000000	      0.13120336	      0.07673391	     -2.53615277	      0.24365776	      0.10205611	     -2.69466232	      0.21555400	      0.18657084	     -2.69466232	      0.14995232	      0.18657084	     -2.21913367	      0.12183544	      0.15647580	     -2.06062412	      0.07496960	      0.11886083	     -1.90211458	      0.93717247	      0.86802938	    -14.10532085	      0.00000000	      0.00000000	     26.29519655	      3.01310971	    -24.36176999	    -40.10593418	    -58.59840186	   -123.29962584	     35.06282154	     74.03446516	    -18.00342622	      0.14622041	   -191.19086985	   -141.07446848	   -222.61244273	     38.54834538	     80.35467931	    -17.92625109	      1.53334237
      4.13559322	      1.19237908	    -11.19082261	     53.84498149	      0.25930918	      0.67381972	      0.62469658	     10.47347596	     12.74917246	     26.63359891	      7.53121109	      0.13144443	     18.66654104	    -10.60937568	      0.00000000	      6.22247111	     -9.10756802	    -22.47885075	      9.14812240	      0.15966486	     33.76481190	     -7.76686082	      0.00000000	      0.17639575	      0.10508305	     -2.75736483	      0.32758455	      0.13976045	     -2.92970013	      0.28980058	      0.25549892	     -2.92970013	      0.20160270	      0.25549892	     -2.41269422	      0.16380109	      0.21428535	     -2.24035892	      0.10079253	      0.16277364	     -2.06802362	      1.25997719	      1.18872042	    -15.33563595	      0.00000000	      0.00000000	     27.50039708	      7.24486615	    -16.40266874	    -40.83959280	    -60.08225003	   -119.51726426	     36.14284378	     75.26223570	    -17.78803580	     -1.39015516	   -193.02976579	   -142.50699001	   -223.06207663	     38.16360554	     81.69223663	    -19.76394456	     -1.08507625
      4.15254237	      1.38295394	    -11.01177832	     54.59457835	      0.25921251	      0.67339205	      0.62564497	     10.53094577	     12.79870034	     25.62982053	      7.81643330	      0.13642250	     19.01407793	    -10.22139142	      0.00000000	      6.41364540	     -9.32497433	    -22.47443802	      9.60397219	      0.16762094	     34.26208750	     -7.07209940	      0.00000000	      0.17876789	      0.14736867	     -3.09409004	      0.33198985	      0.19600033	     -3.28747067	      0.29369777	      0.35831218	     -3.28747067	      0.20431382	      0.35831218	     -2.70732879	      0.16600386	      0.30051419	     -2.51394816	      0.10214797	      0.22827407	     -2.32056753	      1.27692118	      1.66706385	    -17.20840058	      0.00000000	      0.00000000	     27.81207071	     11.69184877	     -5.66694696	    -42.92004888	    -62.26641566	   -115.27008204	     36.53560061	     73.76385565	    -16.49396450	     -2.58551309	   -194.98718068	   -143.90603781	   -223.43541429	     36.88767936	     82.37294022	    -21.35909007	     -3.16002277
      4.16949153	      1.48690297	    -10.70100375	     55.46280653	      0.25897059	      0.67305375	      0.62699914	     10.59920408	     12.69812523	     24.40208771	      8.16449955	      0.14249740	     19.30168453	     -9.99681413	      0.00000000	      6.65458688	     -9.40366899	    -21.92128149	     10.15587700	      0.17725349	     34.71987567	     -6.48825103	      0.00000000	      0.14291914	      0.16465978	     -3.41941119	      0.26541513	      0.21899750	     -3.63312439	      0.23480185	      0.40035378	     -3.63312439	      0.16334228	      0.40035378	     -2.99198479	      0.13271471	      0.33577422	     -2.77827159	      0.08166400	      0.25505800	     -2.56455840	      1.02085712	      1.86266434	    -19.01773924	      0.00000000	      0.00000000	     27.84393968	     15.16456481	      3.54159171	    -44.66533566	    -64.46112417	   -111.76108629	     36.82247755	     70.47922047	    -14.12529890	     -3.44991266	   -196.45717447	   -145.31035541	   -224.15411052	     35.74998416	     82.38761974	    -22.06940382	     -3.81856961
      4.18644068	      1.56408636	    -10.54841304	     56.27602759	      0.25862742	      0.67284666	      0.62717824	     10.66328810	     12.60808853	     23.46055193	      8.33212084	      0.14542294	     19.24579840	    -10.34571123	      0.00000000	      6.90083040	     -9.43096816	    -21.03082923	     10.48696974	      0.18303215	     35.08323341	     -6.18242442	      0.00000000	      0.12228851	      0.16959284	     -3.54422643	      0.22710199	      0.22555847	     -3.76574059	      0.20090779	      0.41234803	     -3.76574059	      0.13976354	      0.41234803	     -3.10119813	      0.11355711	      0.34583372	     -2.87968398	      0.06987565	      0.26269931	     -2.65816983	      0.87349459	      1.91846810	    -19.71192416	      0.00000000	      0.00000000	     27.86092136	     16.91008732	      8.60399148	    -45.57765322	    -65.85871547	   -110.51802970	     38.00673302	     69.47126113	    -11.61268653	     -2.87792664	   -196.74361113	   -146.86090116	   -224.94615096	     35.28105471	     82.03677384	    -22.09903503	     -2.76582636
